<?xml version="1.0" encoding="utf-8"?>
<!-- Generator: Adobe Illustrator 19.0.0, SVG Export Plug-In . SVG Version: 6.00 Build 0)  -->
<svg version="1.1" id="Layer_1" xmlns="http://www.w3.org/2000/svg" xmlns:xlink="http://www.w3.org/1999/xlink" x="0px" y="0px"
	 viewBox="0 0 79.2 29" style="enable-background:new 0 0 79.2 29;" xml:space="preserve">
<style type="text/css">
	.st0{fill:#FFC907;}
	.st1{fill:#FFF;}
</style>
<g id="XMLID_4_">
	<g id="XMLID_781_">
		<path id="XMLID_791_" class="st0" d="M10.5,5.6c-0.2-1.7,0.3-3.2,1.9-4.1c1.3-0.8,2.7-0.7,4,0.2c1.3,0.9,1.8,2.1,1.6,3.7
			c-0.2,1.9-1.8,3.3-3.8,3.3c-4.5,0.2-5.5,1.1-5.5,5.5c0,2.3-1.8,4-4,3.9C2.6,18,1,16.3,1,14.3c0-2.2,1.8-3.8,4.2-3.7
			C8.7,10.6,10.7,8.8,10.5,5.6z"/>
		<path id="XMLID_790_" class="st0" d="M4.8,1c2.1,0,3.9,1.8,3.9,3.9c0,2-1.8,3.8-3.8,3.8C2.8,8.7,1.1,7,1,5C0.9,2.9,2.7,1,4.8,1z"
			/>
		<path id="XMLID_789_" class="st0" d="M23.7,1c2,0,3.8,1.7,3.8,3.8c0,2.1-1.8,3.9-3.8,3.9c-2.1,0-3.9-1.9-3.8-4
			C19.9,2.7,21.6,1,23.7,1z"/>
		<path id="XMLID_787_" class="st0" d="M4.8,27.6c-2.1,0-3.9-1.8-3.8-4c0.1-2,1.8-3.8,3.8-3.7c2.1,0,3.9,1.9,3.8,4
			C8.6,26,6.8,27.6,4.8,27.6z"/>
		<path id="XMLID_786_" class="st0" d="M18,14.3c0,2.2-1.7,3.8-3.9,3.8c-2.1,0-3.7-1.7-3.7-3.8c0-2.2,1.7-3.8,3.9-3.8
			C16.5,10.6,18,12.2,18,14.3z"/>
	</g>
	<g id="XMLID_6_">
		<g id="XMLID_81_">
			<path id="XMLID_91_" class="st1" d="M31.8,14.4h9.4v3.1h-5.7v2.7h4V23h-4v5h-3.7V14.4z"/>
			<path id="XMLID_88_" class="st1" d="M41,25.4c0-2.2,2-3.6,6.1-3.7v-0.1c0-0.5-0.2-0.8-1.1-0.8c-1.1,0-2.2,0.5-3,1.1l-1.5-2.1
				c0.9-0.8,2.5-1.7,5.1-1.7c2.9,0,4.1,1.4,4.1,4.2v3.5c0,1.2,0.1,1.9,0.3,2.4h-3.6c-0.1-0.4-0.2-0.9-0.2-1.4
				c-0.8,1-1.8,1.6-3.3,1.6C42.4,28.2,41,27.3,41,25.4z M47.1,24.9v-1.4c-1.8,0.1-2.5,0.5-2.5,1.3c0,0.5,0.4,0.7,0.8,0.7
				C46.2,25.4,46.7,25.2,47.1,24.9z"/>
			<path id="XMLID_86_" class="st1" d="M51.9,23.1c0-4.1,3-5.1,5.2-5.1c2.9,0,3.9,1.5,4.5,3.1l-3.1,1c-0.3-1.2-0.8-1.5-1.5-1.5
				c-1.1,0-1.5,1-1.5,2.5c0,1.4,0.3,2.6,1.5,2.6c0.6,0,1.3-0.3,1.6-1.6l3,1c-0.6,1.5-1.8,3.1-4.7,3.1C54.6,28.2,51.9,27.1,51.9,23.1
				z"/>
			<path id="XMLID_84_" class="st1" d="M63.9,25v-4.3h-1.6v-2.6h1.6v-3.3h3.7v3.3H70v2.6h-2.5v3.5c0,1.1,0.3,1.3,1.3,1.3
				c0.3,0,0.8-0.1,1-0.1V28c-0.2,0.1-1.5,0.2-2.2,0.2C64.2,28.1,63.9,27,63.9,25z"/>
			<path id="XMLID_82_" class="st1" d="M71.4,18.1h3.7v1.5h0c0.4-0.7,1.3-1.7,3.1-1.7h0v3.2c-0.1,0-0.7-0.1-0.9-0.1
				c-1,0-1.7,0.5-2.2,0.9v6h-3.7V18.1z"/>
		</g>
	</g>
</g>
</svg>
